# xmcd CD database file
#
# Track frame offsets:
#	150
#	12226
#	26849
#	40920
#	56907
#	78193
#	88507
#	94098
#	105651
#	119589
#	129761
#	139167
#	149339
#	171912
#	186413
#	200531
#	215977
#
# Disc length: 3035 seconds
#
# Revision: 0
# Processed by: cddbd v1.5.2PL0 Copyright (c) Steve Scherf et al.
# Submitted via: CDex 1.51
#
DISCID=fa0bd911
DTITLE=Daltons - Danton s saloon
DYEAR=1900
DGENRE=Country
TTITLE0=Bad moon rising
TTITLE1=Honky tonk woman
TTITLE2=handle with care
TTITLE3=Sleepwalk
TTITLE4=Wicked game
TTITLE5=Little less conversation
TTITLE6=Sem nome
TTITLE7=Oh Susannah
TTITLE8=Cowboy fora da lei
TTITLE9=Great balls of fire
TTITLE10=I call your name
TTITLE11=Misirlou
TTITLE12=California blue
TTITLE13=Achy breaky heart
TTITLE14=Summertime blues
TTITLE15=Since I dont have you
TTITLE16=Runaway
EXTD=
EXTT0=
EXTT1=
EXTT2=
EXTT3=
EXTT4=
EXTT5=
EXTT6=
EXTT7=
EXTT8=
EXTT9=
EXTT10=
EXTT11=
EXTT12=
EXTT13=
EXTT14=
EXTT15=
EXTT16=
PLAYORDER=
